<svg width="24" height="24" viewBox="0 0 24 24" fill="none" xmlns="http://www.w3.org/2000/svg">
<path d="M1 7.1875V1V7.1875ZM1 1H7.1875H1ZM1 1L8.5625 8.5625L1 1ZM23 7.1875V1V7.1875ZM23 1H16.8125H23ZM23 1L15.4375 8.5625L23 1ZM1 16.8125V23V16.8125ZM1 23H7.1875H1ZM1 23L8.5625 15.4375L1 23ZM23 16.8125V23V16.8125ZM23 23H16.8125H23ZM23 23L15.4375 15.4375L23 23Z" fill="#AEAEAE"/>
<path d="M1 7.1875V1M1 1H7.1875M1 1L8.5625 8.5625M23 7.1875V1M23 1H16.8125M23 1L15.4375 8.5625M1 16.8125V23M1 23H7.1875M1 23L8.5625 15.4375M23 16.8125V23M23 23H16.8125M23 23L15.4375 15.4375" stroke="#AEAEAE" stroke-width="2" stroke-linecap="round" stroke-linejoin="round"/>
</svg>
