<svg width="745" height="745" viewBox="0 0 745 745" fill="none" xmlns="http://www.w3.org/2000/svg">
<g clip-path="url(#clip0_78_203)">
<path d="M20 616C20 607.163 27.1634 600 36 600H129C137.837 600 145 607.163 145 616V709C145 717.837 137.837 725 129 725H36C27.1635 725 20 717.837 20 709V616Z" fill="#57C66B"/>
<path d="M52 705H114.546C117.859 705 120.546 702.314 120.546 699V619C120.546 615.686 117.859 613 114.546 613H52C48.6863 613 46 615.686 46 619V699C46 702.314 48.6863 705 52 705Z" stroke="white" stroke-width="4"/>
<path d="M59.2725 660H107.272C108.377 660 109.272 659.105 109.272 658V628C109.272 626.895 108.377 626 107.272 626H59.2725C58.1679 626 57.2725 626.895 57.2725 628V658L57.2832 658.204C57.3855 659.213 58.2368 660 59.2725 660Z" stroke="white" stroke-width="4"/>
<path d="M74.7725 646.5V632.5H64.7725V646.5H74.7725Z" stroke="white" stroke-width="3"/>
<path d="M83.7725 646.5V632.5H72.7725V646.5H83.7725Z" stroke="white" stroke-width="3"/>
<path d="M93.7725 646.5V632.5H82.7725V646.5H93.7725Z" stroke="white" stroke-width="3"/>
<path d="M101.772 646.5V632.5H91.7725V646.5H101.772Z" stroke="white" stroke-width="3"/>
<path d="M82.8417 685.66L73.882 684.588C73.3515 684.531 73.0114 684.242 72.8617 683.721C72.7119 683.201 72.834 682.761 73.2279 682.402L87.9719 668.809C88.0392 668.738 88.117 668.686 88.2055 668.652C88.2939 668.617 88.4215 668.6 88.5883 668.6C88.8595 668.6 89.0735 668.72 89.2303 668.96C89.387 669.201 89.3885 669.454 89.2348 669.719L83.6239 679.496L92.6409 680.568C93.1714 680.625 93.5165 680.909 93.6762 681.419C93.836 681.929 93.7184 682.364 93.3236 682.724L78.5796 696.349C78.5123 696.418 78.4344 696.465 78.346 696.49C78.2576 696.515 78.13 696.527 77.9632 696.527C77.6919 696.527 77.4874 696.407 77.3498 696.168C77.2122 695.928 77.2106 695.685 77.3453 695.439L82.8417 685.66ZM81.0332 691.879L91.8526 682.018L81.1944 680.792L85.568 673.196L74.6988 683.088L85.3194 684.395L81.0332 691.879Z" fill="white"/>
<path d="M65.8184 653H72.8002" stroke="white" stroke-width="4" stroke-linecap="round" stroke-linejoin="round"/>
<path d="M79.7817 653H86.7636" stroke="white" stroke-width="4" stroke-linecap="round" stroke-linejoin="round"/>
<path d="M93.7456 653H100.727" stroke="white" stroke-width="4" stroke-linecap="round" stroke-linejoin="round"/>
</g>
<path d="M326 458H419C426.18 458 432 463.82 432 471V564C432 571.18 426.18 577 419 577H326C318.82 577 313 571.18 313 564V471C313 463.82 318.82 458 326 458Z" fill="#57C66B" stroke="#57C66B" stroke-width="6"/>
<path d="M408.356 518.535L401.4 496.357C401.12 495.457 400.557 494.67 399.793 494.111C399.029 493.551 398.105 493.249 397.156 493.249H348.844C347.895 493.249 346.971 493.551 346.207 494.111C345.443 494.67 344.88 495.457 344.6 496.357L337.644 518.557C337.513 518.979 337.445 519.417 337.444 519.858V537.34C337.444 538.51 337.913 539.631 338.746 540.458C339.58 541.285 340.71 541.75 341.889 541.75H404.111C405.29 541.75 406.42 541.285 407.254 540.458C408.087 539.631 408.556 538.51 408.556 537.34V519.836C408.555 519.395 408.487 518.957 408.356 518.535ZM404.111 537.34H341.889V519.836L348.844 497.658H397.156L404.111 519.836V537.34Z" fill="white"/>
<path d="M348.822 526.318H352.822V532.932H348.822V526.318Z" fill="white"/>
<path d="M359.933 526.318H363.933V532.932H359.933V526.318Z" fill="white"/>
<path d="M371.022 526.318H375.022V532.932H371.022V526.318Z" fill="white"/>
<path d="M382.111 526.318H386.111V532.932H382.111V526.318Z" fill="white"/>
<path d="M393.222 526.318H397.222V532.932H393.222V526.318Z" fill="white"/>
<path d="M346.844 517.5H399.489V520.586H346.844V517.5Z" fill="white"/>
<path d="M471 313H564C571.18 313 577 318.82 577 326V419C577 426.18 571.18 432 564 432H471C463.82 432 458 426.18 458 419V326C458 318.82 463.82 313 471 313Z" fill="#57C66B" stroke="#57C66B" stroke-width="6"/>
<path d="M484 336H552C553.105 336 554 336.895 554 338V406C554 407.105 553.105 408 552 408H484C482.895 408 482 407.105 482 406V338C482 336.895 482.895 336 484 336Z" fill="white" stroke="#57C66B" stroke-width="4" stroke-linejoin="round"/>
<path d="M522 353.001C523.152 351.715 525.024 350.967 527 351.001C528.976 350.967 530.848 351.715 532 353.001C533.152 354.287 535.024 355.035 537 355.001C538.976 355.035 540.848 354.287 542 353.001" stroke="#57C66B" stroke-width="4" stroke-linecap="round" stroke-linejoin="round"/>
<path d="M493 386H512" stroke="#57C66B" stroke-width="4" stroke-linecap="round"/>
<path d="M493 393H512" stroke="#57C66B" stroke-width="4" stroke-linecap="round"/>
<path d="M483 338L553 408" stroke="#57C66B" stroke-width="4"/>
<path d="M616 168H709C716.18 168 722 173.82 722 181V274C722 281.18 716.18 287 709 287H616C608.82 287 603 281.18 603 274V181C603 173.82 608.82 168 616 168Z" fill="#57C66B" stroke="#57C66B" stroke-width="6"/>
<path d="M693.504 197.52H634.449C633.144 197.52 631.892 198.056 630.969 199.009C630.046 199.962 629.528 201.254 629.528 202.602V238.171C629.528 239.518 630.046 240.811 630.969 241.764C631.892 242.717 633.144 243.252 634.449 243.252H659.055V263.577H646.752C646.099 263.577 645.474 263.31 645.012 262.833C644.551 262.357 644.291 261.71 644.291 261.037C644.291 260.363 644.551 259.717 645.012 259.24C645.474 258.764 646.099 258.496 646.752 258.496H654.134V248.333H634.449C629.035 248.333 624.606 243.786 624.606 238.171V202.602C624.606 197.012 629.011 192.439 634.449 192.439H693.504C698.917 192.439 703.346 196.987 703.346 202.602H698.425C698.425 201.254 697.907 199.962 696.984 199.009C696.061 198.056 694.809 197.52 693.504 197.52Z" fill="white"/>
<path d="M694.98 222.927C694.328 222.927 693.702 223.195 693.24 223.671C692.779 224.147 692.52 224.794 692.52 225.467C692.52 226.141 692.779 226.788 693.24 227.264C693.702 227.74 694.328 228.008 694.98 228.008H704.823C705.475 228.008 706.101 227.74 706.563 227.264C707.024 226.788 707.283 226.141 707.283 225.467C707.283 224.794 707.024 224.147 706.563 223.671C706.101 223.195 705.475 222.927 704.823 222.927H694.98ZM694.98 233.089C694.328 233.089 693.702 233.357 693.24 233.834C692.779 234.31 692.52 234.956 692.52 235.63C692.52 236.304 692.779 236.95 693.24 237.427C693.702 237.903 694.328 238.171 694.98 238.171H704.823C705.475 238.171 706.101 237.903 706.563 237.427C707.024 236.95 707.283 236.304 707.283 235.63C707.283 234.956 707.024 234.31 706.563 233.834C706.101 233.357 705.475 233.089 704.823 233.089H694.98ZM704.823 263.577C705.475 263.577 706.101 263.31 706.563 262.833C707.024 262.357 707.283 261.71 707.283 261.037C707.283 260.363 707.024 259.717 706.563 259.24C706.101 258.764 705.475 258.496 704.823 258.496C704.17 258.496 703.544 258.764 703.083 259.24C702.621 259.717 702.362 260.363 702.362 261.037C702.362 261.71 702.621 262.357 703.083 262.833C703.544 263.31 704.17 263.577 704.823 263.577Z" fill="white"/>
<path fill-rule="evenodd" clip-rule="evenodd" d="M682.677 224.96C682.677 220.692 682.677 218.558 683.479 216.932C684.188 215.499 685.315 214.33 686.708 213.598C688.287 212.77 690.354 212.77 694.483 212.77H705.31C709.444 212.77 711.511 212.77 713.086 213.598C714.473 214.33 715.605 215.494 716.314 216.932C717.121 218.563 717.121 220.697 717.121 224.96V261.546C717.121 265.814 717.121 267.948 716.314 269.574C715.606 271.009 714.476 272.176 713.086 272.907C711.506 273.741 709.439 273.741 705.31 273.741H694.483C690.349 273.741 688.283 273.741 686.708 272.907C685.317 272.176 684.187 271.009 683.479 269.574C682.677 267.943 682.677 265.809 682.677 261.546V224.96ZM694.488 217.846H705.315C707.461 217.846 708.78 217.846 709.764 217.933C710.122 217.959 710.478 218.017 710.827 218.106L710.866 218.121C711.329 218.367 711.705 218.758 711.939 219.239V219.249L711.954 219.274L711.998 219.437C712.037 219.61 712.082 219.894 712.121 220.372C712.2 221.388 712.205 222.745 712.205 224.965V261.551C712.205 263.766 712.205 265.128 712.121 266.144C712.095 266.514 712.039 266.881 711.954 267.242L711.944 267.262L711.939 267.277C711.703 267.754 711.328 268.142 710.866 268.385L710.846 268.395L710.827 268.405L710.669 268.451C710.372 268.522 710.069 268.565 709.764 268.578C708.78 268.659 707.466 268.664 705.315 268.664H694.488C692.343 268.664 691.024 268.664 690.039 268.578C689.681 268.551 689.325 268.494 688.976 268.405L688.957 268.395L688.942 268.385C688.48 268.142 688.105 267.754 687.869 267.277L687.849 267.242L687.805 267.079C687.736 266.772 687.695 266.459 687.682 266.144C687.603 265.128 687.598 263.771 687.598 261.551V224.96C687.598 222.74 687.598 221.383 687.682 220.367C687.708 219.997 687.764 219.63 687.849 219.269L687.859 219.244L687.869 219.229C688.104 218.75 688.48 218.36 688.942 218.116L688.976 218.1L689.134 218.055C689.431 217.983 689.734 217.941 690.039 217.928C691.024 217.846 692.338 217.846 694.488 217.846Z" fill="white"/>
<path d="M635.218 228.683V211.228H638.38V218.618H646.468V211.228H649.639V228.683H646.468V221.268H638.38V228.683H635.218ZM653.078 211.228H656.947L662.129 223.876H662.334L667.515 211.228H671.385V228.683H668.351V216.691H668.189L663.365 228.632H661.098L656.274 216.666H656.112V228.683H653.078V211.228ZM677.99 211.228V228.683H674.828V211.228H677.99Z" fill="white"/>
<path d="M616 23H709C716.18 23 722 28.8203 722 36V129C722 136.18 716.18 142 709 142H616C608.82 142 603 136.18 603 129V36C603 28.8203 608.82 23 616 23Z" fill="#57C66B" stroke="#57C66B" stroke-width="6"/>
<path d="M698.286 57H624M698.286 108.429H624M644 71.2857V94.1429M661.143 71.2857V94.1429M678.286 71.2857V94.1429M694 108.429V57H628.286V108.429H694Z" stroke="white" stroke-width="5.71429" stroke-linecap="round" stroke-linejoin="round"/>
<path d="M181 603H274C281.18 603 287 608.82 287 616V709C287 716.18 281.18 722 274 722H181C173.82 722 168 716.18 168 709V616C168 608.82 173.82 603 181 603Z" fill="#57C66B" stroke="#57C66B" stroke-width="6"/>
<path d="M326 23H419C426.18 23 432 28.8203 432 36V129C432 136.18 426.18 142 419 142H326C318.82 142 313 136.18 313 129V36C313 28.8203 318.82 23 326 23Z" fill="#57C66B" stroke="#57C66B" stroke-width="6"/>
<path d="M403.504 52.5203H344.449C343.144 52.5203 341.892 53.0557 340.969 54.0086C340.046 54.9615 339.528 56.254 339.528 57.6016V93.1707C339.528 94.5184 340.046 95.8108 340.969 96.7637C341.892 97.7167 343.144 98.252 344.449 98.252H369.055V118.577H356.752C356.099 118.577 355.474 118.31 355.012 117.833C354.551 117.357 354.291 116.71 354.291 116.037C354.291 115.363 354.551 114.717 355.012 114.24C355.474 113.764 356.099 113.496 356.752 113.496H364.134V103.333H344.449C339.035 103.333 334.606 98.7856 334.606 93.1707V57.6016C334.606 52.0122 339.011 47.439 344.449 47.439H403.504C408.917 47.439 413.346 51.9868 413.346 57.6016H408.425C408.425 56.254 407.907 54.9615 406.984 54.0086C406.061 53.0557 404.809 52.5203 403.504 52.5203Z" fill="white"/>
<path d="M404.98 77.9268C404.328 77.9268 403.702 78.1945 403.24 78.671C402.779 79.1474 402.52 79.7937 402.52 80.4675C402.52 81.1413 402.779 81.7875 403.24 82.264C403.702 82.7405 404.328 83.0081 404.98 83.0081H414.823C415.475 83.0081 416.101 82.7405 416.563 82.264C417.024 81.7875 417.283 81.1413 417.283 80.4675C417.283 79.7937 417.024 79.1474 416.563 78.671C416.101 78.1945 415.475 77.9268 414.823 77.9268H404.98ZM404.98 88.0894C404.328 88.0894 403.702 88.3571 403.24 88.8336C402.779 89.31 402.52 89.9563 402.52 90.6301C402.52 91.3039 402.779 91.9501 403.24 92.4266C403.702 92.9031 404.328 93.1707 404.98 93.1707H414.823C415.475 93.1707 416.101 92.9031 416.563 92.4266C417.024 91.9501 417.283 91.3039 417.283 90.6301C417.283 89.9563 417.024 89.31 416.563 88.8336C416.101 88.3571 415.475 88.0894 414.823 88.0894H404.98ZM414.823 118.577C415.475 118.577 416.101 118.31 416.563 117.833C417.024 117.357 417.283 116.71 417.283 116.037C417.283 115.363 417.024 114.717 416.563 114.24C416.101 113.764 415.475 113.496 414.823 113.496C414.17 113.496 413.544 113.764 413.083 114.24C412.621 114.717 412.362 115.363 412.362 116.037C412.362 116.71 412.621 117.357 413.083 117.833C413.544 118.31 414.17 118.577 414.823 118.577Z" fill="white"/>
<path fill-rule="evenodd" clip-rule="evenodd" d="M392.677 79.9602C392.677 75.6919 392.677 73.5578 393.479 71.9318C394.188 70.4988 395.315 69.3301 396.708 68.5984C398.287 67.7702 400.354 67.7702 404.483 67.7702H415.31C419.444 67.7702 421.511 67.7702 423.086 68.5984C424.473 69.3301 425.605 70.4938 426.314 71.9318C427.121 73.5629 427.121 75.697 427.121 79.9602V116.546C427.121 120.814 427.121 122.948 426.314 124.574C425.606 126.009 424.476 127.176 423.086 127.907C421.506 128.741 419.439 128.741 415.31 128.741H404.483C400.349 128.741 398.283 128.741 396.708 127.907C395.317 127.176 394.187 126.009 393.479 124.574C392.677 122.943 392.677 120.809 392.677 116.546V79.9602ZM404.488 72.8464H415.315C417.461 72.8464 418.78 72.8464 419.764 72.9328C420.122 72.9594 420.478 73.0172 420.827 73.1056L420.866 73.1208C421.329 73.3668 421.705 73.7582 421.939 74.2387V74.2488L421.954 74.2742L421.998 74.4369C422.037 74.6096 422.082 74.8942 422.121 75.3718C422.2 76.3881 422.205 77.7448 422.205 79.9653V116.551C422.205 118.766 422.205 120.128 422.121 121.144C422.095 121.514 422.039 121.881 421.954 122.242L421.944 122.262L421.939 122.277C421.703 122.754 421.328 123.142 420.866 123.385L420.846 123.395L420.827 123.405L420.669 123.451C420.372 123.522 420.069 123.565 419.764 123.578C418.78 123.659 417.466 123.664 415.315 123.664H404.488C402.343 123.664 401.024 123.664 400.039 123.578C399.681 123.551 399.325 123.494 398.976 123.405L398.957 123.395L398.942 123.385C398.48 123.142 398.105 122.754 397.869 122.277L397.849 122.242L397.805 122.079C397.736 121.772 397.695 121.459 397.682 121.144C397.603 120.128 397.598 118.771 397.598 116.551V79.9602C397.598 77.7397 397.598 76.383 397.682 75.3667C397.708 74.9967 397.764 74.6295 397.849 74.2692L397.859 74.2438L397.869 74.2285C398.104 73.7499 398.48 73.3604 398.942 73.1157L398.976 73.1005L399.134 73.0547C399.431 72.9835 399.734 72.941 400.039 72.9277C401.024 72.8464 402.338 72.8464 404.488 72.8464Z" fill="white"/>
<path d="M359.57 83.6829H353.656V66.2284H359.69C361.423 66.2284 362.911 66.5778 364.156 67.2767C365.406 67.9699 366.366 68.967 367.036 70.2682C367.707 71.5693 368.042 73.1261 368.042 74.9386C368.042 76.7568 367.704 78.3193 367.028 79.6261C366.357 80.9329 365.388 81.9358 364.121 82.6346C362.86 83.3335 361.343 83.6829 359.57 83.6829ZM356.817 80.9471H359.417C360.633 80.9471 361.647 80.7255 362.46 80.2824C363.272 79.8335 363.883 79.1659 364.292 78.2795C364.701 77.3875 364.906 76.2738 364.906 74.9386C364.906 73.6034 364.701 72.4954 364.292 71.6147C363.883 70.7284 363.278 70.0664 362.477 69.6289C361.681 69.1858 360.692 68.9642 359.511 68.9642H356.817V80.9471ZM385.986 72.1176H382.799C382.708 71.5949 382.54 71.1318 382.296 70.7284C382.052 70.3193 381.748 69.9727 381.384 69.6886C381.021 69.4045 380.606 69.1914 380.14 69.0494C379.68 68.9017 379.183 68.8278 378.648 68.8278C377.7 68.8278 376.859 69.0664 376.126 69.5437C375.393 70.0153 374.819 70.7085 374.404 71.6233C373.989 72.5324 373.782 73.6432 373.782 74.9557C373.782 76.2909 373.989 77.4159 374.404 78.3307C374.825 79.2397 375.398 79.9272 376.126 80.3932C376.859 80.8534 377.697 81.0835 378.64 81.0835C379.163 81.0835 379.651 81.0153 380.106 80.8789C380.566 80.7369 380.978 80.5295 381.342 80.2568C381.711 79.9841 382.021 79.6488 382.271 79.2511C382.526 78.8534 382.702 78.3988 382.799 77.8875L385.986 77.9045C385.867 78.7341 385.609 79.5125 385.211 80.2397C384.819 80.967 384.305 81.6091 383.668 82.1659C383.032 82.717 382.288 83.1488 381.435 83.4613C380.583 83.7682 379.637 83.9216 378.597 83.9216C377.063 83.9216 375.694 83.5664 374.489 82.8562C373.285 82.146 372.336 81.1204 371.643 79.7795C370.95 78.4386 370.603 76.8307 370.603 74.9557C370.603 73.075 370.952 71.467 371.651 70.1318C372.35 68.7909 373.302 67.7653 374.506 67.0551C375.711 66.3449 377.075 65.9897 378.597 65.9897C379.569 65.9897 380.472 66.1261 381.308 66.3988C382.143 66.6716 382.887 67.0721 383.54 67.6005C384.194 68.1233 384.731 68.7653 385.151 69.5267C385.577 70.2824 385.856 71.146 385.986 72.1176Z" fill="white"/>
<path d="M603 564L603 471C603 463.82 608.82 458 616 458L709 458C716.18 458 722 463.82 722 471L722 564C722 571.18 716.18 577 709 577L616 577C608.82 577 603 571.18 603 564Z" fill="#57C66B" stroke="#57C66B" stroke-width="6"/>
<path d="M650.5 500C650.5 499.337 650.763 498.701 651.232 498.232C651.701 497.763 652.337 497.5 653 497.5H673C673.663 497.5 674.299 497.763 674.768 498.232C675.237 498.701 675.5 499.337 675.5 500C675.5 500.663 675.237 501.299 674.768 501.768C674.299 502.237 673.663 502.5 673 502.5H653C652.337 502.5 651.701 502.237 651.232 501.768C650.763 501.299 650.5 500.663 650.5 500ZM653 512.5H673C673.663 512.5 674.299 512.237 674.768 511.768C675.237 511.299 675.5 510.663 675.5 510C675.5 509.337 675.237 508.701 674.768 508.232C674.299 507.763 673.663 507.5 673 507.5H653C652.337 507.5 651.701 507.763 651.232 508.232C650.763 508.701 650.5 509.337 650.5 510C650.5 510.663 650.763 511.299 651.232 511.768C651.701 512.237 652.337 512.5 653 512.5ZM688 490V545C688 546.326 687.473 547.598 686.536 548.536C685.598 549.473 684.326 550 683 550H643C641.674 550 640.402 549.473 639.464 548.536C638.527 547.598 638 546.326 638 545V490C638 488.674 638.527 487.402 639.464 486.464C640.402 485.527 641.674 485 643 485H683C684.326 485 685.598 485.527 686.536 486.464C687.473 487.402 688 488.674 688 490ZM683 490H643V545H683V490ZM663 530C662.258 530 661.533 530.22 660.917 530.632C660.3 531.044 659.819 531.63 659.535 532.315C659.252 533 659.177 533.754 659.322 534.482C659.467 535.209 659.824 535.877 660.348 536.402C660.873 536.926 661.541 537.283 662.268 537.428C662.996 537.573 663.75 537.498 664.435 537.215C665.12 536.931 665.706 536.45 666.118 535.833C666.53 535.217 666.75 534.492 666.75 533.75C666.75 532.755 666.355 531.802 665.652 531.098C664.948 530.395 663.995 530 663 530Z" fill="white"/>
<path d="M471 458H564C571.18 458 577 463.82 577 471V564C577 571.18 571.18 577 564 577H471C463.82 577 458 571.18 458 564V471C458 463.82 463.82 458 471 458Z" fill="#5D708A" stroke="#5D708A" stroke-width="6"/>
<path d="M495.258 562.957H539.715C543.029 562.957 545.715 560.271 545.715 556.957V478.332C545.715 475.018 543.029 472.332 539.715 472.332H495.258C491.944 472.332 489.258 475.018 489.258 478.332V556.957L489.266 557.266C489.426 560.436 492.048 562.957 495.258 562.957Z" stroke="#2B3043" stroke-width="4"/>
<path d="M541.013 566.289V562.959H493.96V566.289H541.013Z" fill="#2B3043" stroke="#2B3043" stroke-width="3.66506"/>
<path d="M503.395 472.33V469H493.96V472.33H503.395Z" fill="#2B3043" stroke="#2B3043" stroke-width="3.66506"/>
<path d="M517.487 492.324C531.608 492.324 543.028 503.676 543.028 517.646C543.028 531.615 531.608 542.967 517.487 542.967C503.366 542.967 491.945 531.615 491.945 517.646C491.945 503.676 503.366 492.324 517.487 492.324Z" stroke="#2B3043" stroke-width="4"/>
<ellipse cx="497.67" cy="518.646" rx="3.69462" ry="3.66506" fill="#2B3043"/>
<ellipse cx="537.303" cy="518.646" rx="3.69462" ry="3.66506" fill="#2B3043"/>
<path d="M168 564L168 471C168 463.82 173.82 458 181 458L274 458C281.18 458 287 463.82 287 471L287 564C287 571.18 281.18 577 274 577L181 577C173.82 577 168 571.18 168 564Z" fill="#57C66B" stroke="#57C66B" stroke-width="6"/>
<path d="M212.667 483C208.967 483 206 485.967 206 489.667V529.667C206 533.367 208.967 536.333 212.667 536.333H216V543H206V549.667H216C219.7 549.667 222.667 546.7 222.667 543V536.333H229.333V543C229.333 546.7 232.3 549.667 236 549.667H246V543H236V536.333H239.333C243.033 536.333 246 533.367 246 529.667V489.667C246 485.967 243.033 483 239.333 483H212.667ZM226 492.9C227.768 492.9 229.464 493.602 230.714 494.853C231.964 496.103 232.667 497.799 232.667 499.567C232.667 501.335 231.964 503.03 230.714 504.281C229.464 505.531 227.768 506.233 226 506.233C224.232 506.233 222.536 505.531 221.286 504.281C220.036 503.03 219.333 501.335 219.333 499.567C219.333 497.799 220.036 496.103 221.286 494.853C222.536 493.602 224.232 492.9 226 492.9ZM219.333 524.667H232.667V529.667H219.333V524.667Z" fill="white"/>
<path d="M20 471C20 462.163 27.1634 455 36 455H129C137.837 455 145 462.163 145 471V564C145 572.837 137.837 580 129 580H36C27.1634 580 20 572.837 20 564V471Z" fill="#57C66B"/>
<path d="M117.167 477H48.8333C45.0594 477 42 480.059 42 483.833V533.944C42 537.718 45.0594 540.778 48.8333 540.778H117.167C120.941 540.778 124 537.718 124 533.944V483.833C124 480.059 120.941 477 117.167 477Z" stroke="white" stroke-width="4" stroke-linejoin="round"/>
<path d="M60.2223 558.999H105.778M83.0001 540.777V558.999" stroke="white" stroke-width="4" stroke-linecap="round" stroke-linejoin="round"/>
<path d="M102.133 508.889C102.133 520.095 93.9338 527.566 83.818 527.566C75.596 527.566 68.9617 523.205 66.6456 516.36M64.7778 508.889C64.7778 497.682 72.9774 490.211 83.0951 490.211C91.3152 490.211 97.9458 494.572 100.266 501.418" stroke="white" stroke-width="3" stroke-linecap="round" stroke-linejoin="round"/>
<path d="M74.1167 518.229L66.6456 516.361L64.7778 523.832M92.7945 499.551L100.266 501.419L102.133 493.948" stroke="white" stroke-width="3" stroke-linecap="round" stroke-linejoin="round"/>
<path d="M82.6297 511.883L74.93 510.885C74.4741 510.832 74.1818 510.562 74.0531 510.078C73.9245 509.594 74.0294 509.185 74.3679 508.85L87.0385 496.195C87.0963 496.129 87.1632 496.081 87.2392 496.049C87.3152 496.016 87.4249 496 87.5682 496C87.8013 496 87.9852 496.112 88.1199 496.336C88.2546 496.56 88.2559 496.795 88.1238 497.042L83.3019 506.145L91.0509 507.142C91.5068 507.196 91.8034 507.46 91.9407 507.935C92.078 508.41 91.9769 508.815 91.6376 509.15L78.967 521.834C78.9092 521.899 78.8422 521.942 78.7663 521.965C78.6903 521.988 78.5806 522 78.4373 522C78.2042 522 78.0284 521.889 77.9102 521.666C77.7919 521.443 77.7906 521.216 77.9063 520.987L82.6297 511.883ZM81.0755 517.673L90.3735 508.493L81.2141 507.351L84.9727 500.28L75.632 509.489L84.759 510.705L81.0755 517.673Z" fill="white"/>
<path d="M603 419L603 326C603 318.82 608.82 313 616 313L709 313C716.18 313 722 318.82 722 326L722 419C722 426.18 716.18 432 709 432L616 432C608.82 432 603 426.18 603 419Z" fill="#57C66B" stroke="#57C66B" stroke-width="6"/>
<path d="M651.406 411.996V402.577C644.247 400.227 638.39 395.975 633.834 389.821C629.278 383.666 627 376.607 627 368.644C627 363.704 627.926 359.073 629.778 354.752C631.63 350.43 634.165 346.655 637.384 343.426C640.602 340.197 644.362 337.652 648.664 335.789C652.965 333.927 657.54 332.997 662.389 333C667.294 333 671.903 333.93 676.216 335.789C680.527 337.649 684.296 340.194 687.523 343.426C690.748 346.655 693.301 350.43 695.182 354.752C697.064 359.073 698.003 363.704 698 368.644C698 376.551 695.718 383.573 691.153 389.709C686.585 395.846 680.732 400.098 673.594 402.465V412H669.156V403.637C668.017 403.898 666.893 404.072 665.784 404.158C664.677 404.245 663.546 404.288 662.389 404.288C661.253 404.288 660.148 404.24 659.074 404.145C658 404.05 656.924 403.881 655.844 403.637V412L651.406 411.996ZM662.5 400.055C671.079 400.055 678.401 397.01 684.466 390.921C690.53 384.832 693.562 377.48 693.562 368.867C693.562 360.253 690.53 352.901 684.466 346.812C678.401 340.723 671.079 337.678 662.5 337.678C653.921 337.678 646.599 340.723 640.534 346.812C634.47 352.901 631.437 360.253 631.437 368.867C631.437 377.48 634.47 384.832 640.534 390.921C646.599 397.01 653.921 400.055 662.5 400.055ZM646.969 357.728H678.031V353.272H646.969V357.728ZM659.172 392.432L668.899 382.661L663.352 377.091L669.325 371.094L665.828 367.583L656.101 377.35L661.648 382.919L655.675 388.916L659.172 392.432Z" fill="white"/>
<path d="M181 313H274C281.18 313 287 318.82 287 326V419C287 426.18 281.18 432 274 432H181C173.82 432 168 426.18 168 419V326C168 318.82 173.82 313 181 313Z" fill="#57C66B" stroke="#57C66B" stroke-width="6"/>
<path d="M251.614 341.746H202.402C199.684 341.746 197.48 343.967 197.48 346.706V383.082C197.48 385.822 199.684 388.042 202.402 388.042H251.614C254.332 388.042 256.535 385.822 256.535 383.082V346.706C256.535 343.967 254.332 341.746 251.614 341.746Z" stroke="white" stroke-width="4" stroke-linejoin="round"/>
<path d="M210.604 401.27H243.412M227.008 388.042V401.27" stroke="white" stroke-width="4" stroke-linecap="round" stroke-linejoin="round"/>
<path d="M458 274L458 181C458 173.82 463.82 168 471 168L564 168C571.18 168 577 173.82 577 181L577 274C577 281.18 571.18 287 564 287L471 287C463.82 287 458 281.18 458 274Z" fill="#57C66B" stroke="#57C66B" stroke-width="6"/>
<path d="M549.571 188.857H486.714C485.199 188.857 483.745 189.459 482.674 190.531C481.602 191.603 481 193.056 481 194.572V223.143C481 224.659 481.602 226.112 482.674 227.184C483.745 228.255 485.199 228.857 486.714 228.857H549.571C551.087 228.857 552.54 228.255 553.612 227.184C554.684 226.112 555.286 224.659 555.286 223.143V194.572C555.286 193.056 554.684 191.603 553.612 190.531C552.54 189.459 551.087 188.857 549.571 188.857Z" stroke="white" stroke-width="5.71429" stroke-linecap="round" stroke-linejoin="round"/>
<path d="M541 228.857V217.429C541 215.913 540.398 214.46 539.326 213.388C538.255 212.317 536.801 211.715 535.286 211.715H501C499.484 211.715 498.031 212.317 496.959 213.388C495.888 214.46 495.286 215.913 495.286 217.429V228.857M492.429 257.429H493C495.122 257.429 497.157 256.586 498.657 255.086C500.157 253.585 501 251.551 501 249.429V243.143M543.857 257.429H543.286C541.164 257.429 539.129 256.586 537.629 255.086C536.129 253.585 535.286 251.551 535.286 249.429V243.143M518.143 263.143V243.143" stroke="white" stroke-width="5.71429" stroke-linecap="round" stroke-linejoin="round"/>
<path d="M326 168H419C426.18 168 432 173.82 432 181V274C432 281.18 426.18 287 419 287H326C318.82 287 313 281.18 313 274V181C313 173.82 318.82 168 326 168Z" fill="#57C66B" stroke="#57C66B" stroke-width="6"/>
<path d="M336.177 261H410.839C411.943 261 412.839 260.105 412.839 259V196C412.839 194.895 411.943 194 410.839 194H336.177C335.073 194 334.177 194.895 334.177 196V259C334.177 260.105 335.073 261 336.177 261Z" stroke="white" stroke-width="4"/>
<path d="M347.266 234H399.75C400.854 234 401.75 233.105 401.75 232V204C401.75 202.895 400.854 202 399.75 202H347.266C346.162 202 345.266 202.895 345.266 204V232C345.266 233.105 346.162 234 347.266 234Z" stroke="white" stroke-width="4"/>
<path d="M347.266 251H358.419C359.524 251 360.419 250.105 360.419 249V245C360.419 243.895 359.524 243 358.419 243H347.266C346.162 243 345.266 243.895 345.266 245V249C345.266 250.105 346.162 251 347.266 251Z" stroke="white" stroke-width="4"/>
<path d="M367.427 251H378.581C379.685 251 380.581 250.105 380.581 249V245C380.581 243.895 379.685 243 378.581 243H367.427C366.323 243 365.427 243.895 365.427 245V249C365.427 250.105 366.323 251 367.427 251Z" stroke="white" stroke-width="4"/>
<path d="M388.597 251H399.75C400.855 251 401.75 250.105 401.75 249V245C401.75 243.895 400.855 243 399.75 243H388.597C387.492 243 386.597 243.895 386.597 245V249C386.597 250.105 387.492 251 388.597 251Z" stroke="white" stroke-width="4"/>
<path d="M368.778 215.119C368.636 214.659 368.44 214.247 368.19 213.884C367.945 213.514 367.65 213.199 367.303 212.938C366.962 212.676 366.57 212.48 366.127 212.349C365.684 212.213 365.201 212.145 364.678 212.145C363.741 212.145 362.906 212.381 362.173 212.852C361.44 213.324 360.863 214.017 360.442 214.932C360.028 215.841 359.82 216.949 359.82 218.256C359.82 219.574 360.028 220.69 360.442 221.605C360.857 222.52 361.434 223.216 362.173 223.693C362.911 224.165 363.769 224.401 364.746 224.401C365.633 224.401 366.4 224.23 367.048 223.889C367.701 223.548 368.204 223.065 368.556 222.44C368.908 221.81 369.085 221.071 369.085 220.224L369.8 220.335H365.062V217.864H372.144V219.96C372.144 221.455 371.826 222.747 371.19 223.838C370.553 224.929 369.678 225.77 368.565 226.361C367.451 226.946 366.173 227.239 364.729 227.239C363.121 227.239 361.71 226.878 360.494 226.156C359.283 225.429 358.337 224.398 357.656 223.062C356.979 221.722 356.641 220.131 356.641 218.29C356.641 216.881 356.84 215.622 357.238 214.514C357.641 213.406 358.204 212.466 358.925 211.693C359.647 210.915 360.494 210.324 361.465 209.92C362.437 209.511 363.494 209.307 364.636 209.307C365.602 209.307 366.502 209.449 367.337 209.733C368.173 210.011 368.914 210.409 369.562 210.926C370.215 211.443 370.752 212.057 371.173 212.767C371.593 213.477 371.869 214.261 371.999 215.119H368.778ZM390.142 215.435H386.955C386.864 214.912 386.696 214.449 386.452 214.045C386.207 213.636 385.903 213.29 385.54 213.006C385.176 212.722 384.761 212.509 384.295 212.366C383.835 212.219 383.338 212.145 382.804 212.145C381.855 212.145 381.014 212.384 380.281 212.861C379.548 213.332 378.974 214.026 378.56 214.94C378.145 215.849 377.937 216.96 377.937 218.273C377.937 219.608 378.145 220.733 378.56 221.648C378.98 222.557 379.554 223.244 380.281 223.71C381.014 224.17 381.852 224.401 382.795 224.401C383.318 224.401 383.807 224.332 384.261 224.196C384.722 224.054 385.134 223.847 385.497 223.574C385.866 223.301 386.176 222.966 386.426 222.568C386.682 222.17 386.858 221.716 386.955 221.205L390.142 221.222C390.023 222.051 389.764 222.83 389.366 223.557C388.974 224.284 388.46 224.926 387.824 225.483C387.187 226.034 386.443 226.466 385.591 226.778C384.739 227.085 383.793 227.239 382.753 227.239C381.219 227.239 379.849 226.884 378.645 226.173C377.44 225.463 376.491 224.438 375.798 223.097C375.105 221.756 374.759 220.148 374.759 218.273C374.759 216.392 375.108 214.784 375.807 213.449C376.506 212.108 377.457 211.082 378.662 210.372C379.866 209.662 381.23 209.307 382.753 209.307C383.724 209.307 384.628 209.443 385.463 209.716C386.298 209.989 387.043 210.389 387.696 210.918C388.349 211.44 388.886 212.082 389.307 212.844C389.733 213.599 390.011 214.463 390.142 215.435Z" fill="white"/>
<path d="M181 168H274C281.18 168 287 173.82 287 181V274C287 281.18 281.18 287 274 287H181C173.82 287 168 281.18 168 274V181C168 173.82 173.82 168 181 168Z" fill="#57C66B" stroke="#57C66B" stroke-width="6"/>
<path d="M261.556 244.618H195.428C191.77 244.618 188.81 247.651 188.81 251.382V258.162C188.81 261.894 191.77 264.943 195.428 264.943H261.571C265.214 264.943 268.19 261.91 268.19 258.162V251.382C268.175 247.651 265.214 244.618 261.556 244.618ZM202.032 258.162H195.428V251.382H202.047V258.162H202.032ZM248.333 258.162H245.032V251.382H248.333V258.162ZM254.952 258.162H251.651V251.382H254.952V258.162ZM261.556 258.162H258.254V251.382H261.556V258.162ZM261.556 217.512H195.428C191.77 217.512 188.81 220.545 188.81 224.292V231.073C188.81 234.804 191.77 237.837 195.428 237.837H261.571C265.214 237.837 268.19 234.804 268.19 231.057V224.277C268.175 220.545 265.214 217.512 261.556 217.512ZM202.032 231.057H195.428V224.277H202.047V231.057H202.032ZM248.333 231.057H245.032V224.277H248.333V231.057ZM254.952 231.057H251.651V224.277H254.952V231.057ZM261.556 231.057H258.254V224.277H261.556V231.057ZM261.556 190.407H195.428C191.77 190.407 188.81 193.455 188.81 197.187V203.967C188.81 207.699 191.77 210.748 195.428 210.748H261.571C265.214 210.748 268.19 207.715 268.19 203.967V197.187C268.175 193.455 265.214 190.407 261.556 190.407ZM202.032 203.967H195.428V197.187H202.047V203.967H202.032ZM248.333 203.967H245.032V197.187H248.333V203.967ZM254.952 203.967H251.651V197.187H254.952V203.967ZM261.556 203.967H258.254V197.187H261.556V203.967Z" fill="white"/>
<path d="M471 23H564C571.18 23 577 28.8203 577 36V129C577 136.18 571.18 142 564 142H471C463.82 142 458 136.18 458 129V36C458 28.8203 463.82 23 471 23Z" fill="#57C66B" stroke="#57C66B" stroke-width="6"/>
<path d="M548.504 52.5203H489.449C488.144 52.5203 486.892 53.0557 485.969 54.0086C485.046 54.9615 484.528 56.254 484.528 57.6016V93.1707C484.528 94.5184 485.046 95.8108 485.969 96.7637C486.892 97.7167 488.144 98.252 489.449 98.252H514.055V118.577H501.752C501.099 118.577 500.474 118.31 500.012 117.833C499.551 117.357 499.291 116.71 499.291 116.037C499.291 115.363 499.551 114.717 500.012 114.24C500.474 113.764 501.099 113.496 501.752 113.496H509.134V103.333H489.449C484.035 103.333 479.606 98.7856 479.606 93.1707V57.6016C479.606 52.0122 484.011 47.439 489.449 47.439H548.504C553.917 47.439 558.346 51.9868 558.346 57.6016H553.425C553.425 56.254 552.907 54.9615 551.984 54.0086C551.061 53.0557 549.809 52.5203 548.504 52.5203Z" fill="white"/>
<path d="M549.98 77.9268C549.328 77.9268 548.702 78.1945 548.24 78.671C547.779 79.1474 547.52 79.7937 547.52 80.4675C547.52 81.1413 547.779 81.7875 548.24 82.264C548.702 82.7405 549.328 83.0081 549.98 83.0081H559.823C560.475 83.0081 561.101 82.7405 561.563 82.264C562.024 81.7875 562.283 81.1413 562.283 80.4675C562.283 79.7937 562.024 79.1474 561.563 78.671C561.101 78.1945 560.475 77.9268 559.823 77.9268H549.98ZM549.98 88.0894C549.328 88.0894 548.702 88.3571 548.24 88.8336C547.779 89.31 547.52 89.9563 547.52 90.6301C547.52 91.3039 547.779 91.9501 548.24 92.4266C548.702 92.9031 549.328 93.1707 549.98 93.1707H559.823C560.475 93.1707 561.101 92.9031 561.563 92.4266C562.024 91.9501 562.283 91.3039 562.283 90.6301C562.283 89.9563 562.024 89.31 561.563 88.8336C561.101 88.3571 560.475 88.0894 559.823 88.0894H549.98ZM559.823 118.577C560.475 118.577 561.101 118.31 561.563 117.833C562.024 117.357 562.283 116.71 562.283 116.037C562.283 115.363 562.024 114.717 561.563 114.24C561.101 113.764 560.475 113.496 559.823 113.496C559.17 113.496 558.544 113.764 558.083 114.24C557.621 114.717 557.362 115.363 557.362 116.037C557.362 116.71 557.621 117.357 558.083 117.833C558.544 118.31 559.17 118.577 559.823 118.577Z" fill="white"/>
<path fill-rule="evenodd" clip-rule="evenodd" d="M537.677 79.9602C537.677 75.6919 537.677 73.5578 538.479 71.9318C539.188 70.4988 540.315 69.3301 541.708 68.5984C543.287 67.7702 545.354 67.7702 549.483 67.7702H560.31C564.444 67.7702 566.511 67.7702 568.086 68.5984C569.473 69.3301 570.605 70.4938 571.314 71.9318C572.121 73.5629 572.121 75.697 572.121 79.9602V116.546C572.121 120.814 572.121 122.948 571.314 124.574C570.606 126.009 569.476 127.176 568.086 127.907C566.506 128.741 564.439 128.741 560.31 128.741H549.483C545.349 128.741 543.283 128.741 541.708 127.907C540.317 127.176 539.187 126.009 538.479 124.574C537.677 122.943 537.677 120.809 537.677 116.546V79.9602ZM549.488 72.8464H560.315C562.461 72.8464 563.78 72.8464 564.764 72.9328C565.122 72.9594 565.478 73.0172 565.827 73.1056L565.866 73.1208C566.329 73.3668 566.705 73.7582 566.939 74.2387V74.2488L566.954 74.2742L566.998 74.4369C567.037 74.6096 567.082 74.8942 567.121 75.3718C567.2 76.3881 567.205 77.7448 567.205 79.9653V116.551C567.205 118.766 567.205 120.128 567.121 121.144C567.095 121.514 567.039 121.881 566.954 122.242L566.944 122.262L566.939 122.277C566.703 122.754 566.328 123.142 565.866 123.385L565.846 123.395L565.827 123.405L565.669 123.451C565.372 123.522 565.069 123.565 564.764 123.578C563.78 123.659 562.466 123.664 560.315 123.664H549.488C547.343 123.664 546.024 123.664 545.039 123.578C544.681 123.551 544.325 123.494 543.976 123.405L543.957 123.395L543.942 123.385C543.48 123.142 543.105 122.754 542.869 122.277L542.849 122.242L542.805 122.079C542.736 121.772 542.695 121.459 542.682 121.144C542.603 120.128 542.598 118.771 542.598 116.551V79.9602C542.598 77.7397 542.598 76.383 542.682 75.3667C542.708 74.9967 542.764 74.6295 542.849 74.2692L542.859 74.2438L542.869 74.2285C543.104 73.7499 543.48 73.3604 543.942 73.1157L543.976 73.1005L544.134 73.0547C544.431 72.9835 544.734 72.941 545.039 72.9277C546.024 72.8464 547.338 72.8464 549.488 72.8464Z" fill="white"/>
<path d="M487.359 83.6829V66.2284H498.711V68.8789H490.521V73.6176H498.123V76.2682H490.521V81.0324H498.78V83.6829H487.359ZM501.937 66.2284H505.807L510.988 78.8761H511.193L516.375 66.2284H520.244V83.6829H517.21V71.6914H517.048L512.224 83.6318H509.957L505.133 71.6659H504.971V83.6829H501.937V66.2284ZM533.173 71.0267C533.093 70.2824 532.758 69.7028 532.167 69.288C531.582 68.8733 530.821 68.6659 529.883 68.6659C529.224 68.6659 528.659 68.7653 528.187 68.9642C527.716 69.163 527.355 69.4329 527.105 69.7738C526.855 70.1147 526.727 70.5039 526.721 70.9414C526.721 71.3051 526.804 71.6204 526.968 71.8875C527.139 72.1545 527.369 72.3818 527.659 72.5693C527.949 72.7511 528.27 72.9045 528.622 73.0295C528.974 73.1545 529.329 73.2596 529.687 73.3449L531.324 73.7539C531.983 73.9074 532.616 74.1147 533.224 74.3761C533.838 74.6375 534.386 74.967 534.869 75.3647C535.358 75.7625 535.744 76.2426 536.028 76.8051C536.312 77.3676 536.454 78.0267 536.454 78.7824C536.454 79.8051 536.193 80.7057 535.67 81.4841C535.147 82.2568 534.392 82.8619 533.403 83.2994C532.42 83.7312 531.23 83.9471 529.832 83.9471C528.474 83.9471 527.295 83.7369 526.295 83.3164C525.301 82.896 524.522 82.2824 523.96 81.4755C523.403 80.6687 523.102 79.6858 523.057 78.5267H526.167C526.213 79.1346 526.4 79.6403 526.73 80.0437C527.059 80.4471 527.488 80.7483 528.017 80.9471C528.551 81.146 529.147 81.2454 529.807 81.2454C530.494 81.2454 531.096 81.1432 531.613 80.9386C532.136 80.7284 532.545 80.4386 532.841 80.0693C533.136 79.6943 533.287 79.2568 533.292 78.7568C533.287 78.3022 533.153 77.9272 532.892 77.6318C532.63 77.3307 532.264 77.0807 531.792 76.8818C531.326 76.6772 530.781 76.4954 530.156 76.3363L528.17 75.825C526.733 75.4557 525.596 74.896 524.761 74.146C523.932 73.3903 523.517 72.3875 523.517 71.1375C523.517 70.1091 523.795 69.2085 524.352 68.4358C524.914 67.663 525.679 67.0636 526.645 66.6375C527.61 66.2057 528.704 65.9897 529.926 65.9897C531.164 65.9897 532.25 66.2057 533.182 66.6375C534.119 67.0636 534.855 67.6574 535.389 68.4187C535.923 69.1744 536.199 70.0437 536.216 71.0267L533.173 71.0267Z" fill="white"/>
<path d="M23 129L23 36C23 28.8203 28.8203 23 36 23L129 23C136.18 23 142 28.8203 142 36L142 129C142 136.18 136.18 142 129 142L36 142C28.8203 142 23 136.18 23 129Z" fill="#57C66B" stroke="#57C66B" stroke-width="6"/>
<path d="M114.545 36H51.9995C48.686 36.0002 45.9995 38.6864 45.9995 42V122C45.9995 125.314 48.686 128 51.9995 128H114.545C117.859 128 120.545 125.314 120.545 122V42C120.545 38.6863 117.859 36 114.545 36Z" fill="#57C66B" stroke="white" stroke-width="4"/>
<path d="M91.5 92.5V110.5H101.5V92.5H91.5Z" stroke="white" stroke-width="3"/>
<path d="M82.5 92.5V110.5H93.5V92.5H82.5Z" stroke="white" stroke-width="3"/>
<path d="M72.5 92.5V110.5H83.5V92.5H72.5Z" stroke="white" stroke-width="3"/>
<path d="M64.5 92.5V110.5H74.5V92.5H64.5Z" stroke="white" stroke-width="3"/>
<path d="M58.5 97.5V105.5H64.5V97.5H58.5Z" stroke="white" stroke-width="3"/>
<path d="M101.5 97.5V105.5H107.5V97.5H101.5Z" stroke="white" stroke-width="3"/>
<path d="M83.576 61.7867L95.5534 63.2445C96.2625 63.3231 96.7172 63.7164 96.9173 64.4242C97.1174 65.1321 96.9543 65.7303 96.4277 66.2191L76.7179 84.7156C76.6279 84.8111 76.5238 84.882 76.4056 84.9284C76.2874 84.9761 76.1169 85 75.8939 85C75.5313 85 75.2452 84.8364 75.0356 84.5091C74.8261 84.1819 74.8241 83.8378 75.0296 83.4769L82.5303 70.1733L70.4764 68.7155C69.7672 68.6368 69.3058 68.2506 69.0923 67.5568C68.8787 66.863 69.0359 66.2711 69.5637 65.7809L89.2735 47.2423C89.3635 47.1482 89.4676 47.0843 89.5858 47.0506C89.704 47.0168 89.8746 47 90.0976 47C90.4602 47 90.7335 47.1629 90.9175 47.4887C91.1015 47.8146 91.1036 48.1453 90.9236 48.481L83.576 61.7867ZM85.9936 53.3242L71.5301 66.7415L85.778 68.41L79.9314 78.7453L94.4614 65.2858L80.2638 63.5078L85.9936 53.3242Z" fill="white"/>
<path d="M181 23H274C281.18 23 287 28.8203 287 36V129C287 136.18 281.18 142 274 142H181C173.82 142 168 136.18 168 129V36C168 28.8203 173.82 23 181 23Z" fill="#57C66B" stroke="#57C66B" stroke-width="6"/>
<path d="M258.504 52.5203H199.449C198.144 52.5203 196.892 53.0557 195.969 54.0086C195.046 54.9615 194.528 56.254 194.528 57.6016V93.1707C194.528 94.5184 195.046 95.8108 195.969 96.7637C196.892 97.7167 198.144 98.252 199.449 98.252H224.055V118.577H211.752C211.099 118.577 210.473 118.31 210.012 117.833C209.551 117.357 209.291 116.71 209.291 116.037C209.291 115.363 209.551 114.717 210.012 114.24C210.473 113.764 211.099 113.496 211.752 113.496H219.134V103.333H199.449C194.035 103.333 189.606 98.7856 189.606 93.1707V57.6016C189.606 52.0122 194.011 47.439 199.449 47.439H258.504C263.917 47.439 268.346 51.9868 268.346 57.6016H263.425C263.425 56.254 262.907 54.9615 261.984 54.0086C261.061 53.0557 259.809 52.5203 258.504 52.5203Z" fill="white"/>
<path d="M259.98 77.9268C259.328 77.9268 258.702 78.1945 258.24 78.671C257.779 79.1474 257.52 79.7937 257.52 80.4675C257.52 81.1413 257.779 81.7875 258.24 82.264C258.702 82.7405 259.328 83.0081 259.98 83.0081H269.823C270.475 83.0081 271.101 82.7405 271.563 82.264C272.024 81.7875 272.283 81.1413 272.283 80.4675C272.283 79.7937 272.024 79.1474 271.563 78.671C271.101 78.1945 270.475 77.9268 269.823 77.9268H259.98ZM259.98 88.0894C259.328 88.0894 258.702 88.3571 258.24 88.8336C257.779 89.31 257.52 89.9563 257.52 90.6301C257.52 91.3039 257.779 91.9501 258.24 92.4266C258.702 92.9031 259.328 93.1707 259.98 93.1707H269.823C270.475 93.1707 271.101 92.9031 271.563 92.4266C272.024 91.9501 272.283 91.3039 272.283 90.6301C272.283 89.9563 272.024 89.31 271.563 88.8336C271.101 88.3571 270.475 88.0894 269.823 88.0894H259.98ZM269.823 118.577C270.475 118.577 271.101 118.31 271.563 117.833C272.024 117.357 272.283 116.71 272.283 116.037C272.283 115.363 272.024 114.717 271.563 114.24C271.101 113.764 270.475 113.496 269.823 113.496C269.17 113.496 268.544 113.764 268.083 114.24C267.621 114.717 267.362 115.363 267.362 116.037C267.362 116.71 267.621 117.357 268.083 117.833C268.544 118.31 269.17 118.577 269.823 118.577Z" fill="white"/>
<path fill-rule="evenodd" clip-rule="evenodd" d="M247.677 79.9602C247.677 75.6919 247.677 73.5578 248.479 71.9318C249.188 70.4988 250.315 69.3301 251.708 68.5984C253.287 67.7702 255.354 67.7702 259.483 67.7702H270.31C274.444 67.7702 276.511 67.7702 278.086 68.5984C279.473 69.3301 280.605 70.4938 281.314 71.9318C282.121 73.5629 282.121 75.697 282.121 79.9602V116.546C282.121 120.814 282.121 122.948 281.314 124.574C280.606 126.009 279.476 127.176 278.086 127.907C276.506 128.741 274.439 128.741 270.31 128.741H259.483C255.349 128.741 253.282 128.741 251.708 127.907C250.317 127.176 249.187 126.009 248.479 124.574C247.677 122.943 247.677 120.809 247.677 116.546V79.9602ZM259.488 72.8464H270.315C272.461 72.8464 273.78 72.8464 274.764 72.9328C275.122 72.9594 275.478 73.0172 275.827 73.1056L275.866 73.1208C276.329 73.3668 276.705 73.7582 276.939 74.2387V74.2488L276.954 74.2742L276.998 74.4369C277.037 74.6096 277.082 74.8942 277.121 75.3718C277.2 76.3881 277.205 77.7448 277.205 79.9653V116.551C277.205 118.766 277.205 120.128 277.121 121.144C277.095 121.514 277.039 121.881 276.954 122.242L276.944 122.262L276.939 122.277C276.703 122.754 276.328 123.142 275.866 123.385L275.846 123.395L275.827 123.405L275.669 123.451C275.372 123.522 275.069 123.565 274.764 123.578C273.78 123.659 272.466 123.664 270.315 123.664H259.488C257.343 123.664 256.024 123.664 255.039 123.578C254.681 123.551 254.325 123.494 253.976 123.405L253.957 123.395L253.942 123.385C253.48 123.142 253.105 122.754 252.869 122.277L252.849 122.242L252.805 122.079C252.736 121.772 252.695 121.459 252.682 121.144C252.603 120.128 252.598 118.771 252.598 116.551V79.9602C252.598 77.7397 252.598 76.383 252.682 75.3667C252.708 74.9967 252.764 74.6295 252.849 74.2692L252.859 74.2438L252.869 74.2285C253.104 73.7499 253.479 73.3604 253.942 73.1157L253.976 73.1005L254.134 73.0547C254.431 72.9835 254.734 72.941 255.039 72.9277C256.024 72.8464 257.338 72.8464 259.488 72.8464Z" fill="white"/>
<path d="M210.634 72.5995H207.579C207.492 72.0985 207.331 71.6548 207.097 71.2682C206.863 70.8761 206.571 70.544 206.223 70.2717C205.875 69.9994 205.477 69.7953 205.031 69.6591C204.589 69.5176 204.113 69.4468 203.601 69.4468C202.692 69.4468 201.886 69.6755 201.184 70.1329C200.481 70.5848 199.931 71.2491 199.534 72.1258C199.136 72.997 198.937 74.0615 198.937 75.3193C198.937 76.5989 199.136 77.677 199.534 78.5537C199.937 79.4249 200.487 80.0837 201.184 80.5302C201.886 80.9713 202.689 81.1918 203.593 81.1918C204.094 81.1918 204.562 81.1265 204.998 80.9958C205.439 80.8597 205.834 80.6609 206.182 80.3995C206.536 80.1382 206.833 79.8169 207.072 79.4358C207.317 79.0546 207.486 78.619 207.579 78.1289L210.634 78.1453C210.519 78.9403 210.271 79.6862 209.89 80.3832C209.515 81.0802 209.022 81.6955 208.412 82.2291C207.802 82.7573 207.089 83.1711 206.272 83.4706C205.455 83.7646 204.549 83.9116 203.552 83.9116C202.082 83.9116 200.77 83.5713 199.615 82.8907C198.461 82.21 197.552 81.2272 196.887 79.9422C196.223 78.6571 195.891 77.1162 195.891 75.3193C195.891 73.517 196.226 71.976 196.896 70.6964C197.565 69.4114 198.477 68.4285 199.632 67.7479C200.786 67.0673 202.093 66.727 203.552 66.727C204.483 66.727 205.349 66.8576 206.15 67.119C206.95 67.3804 207.663 67.7642 208.289 68.2706C208.916 68.7716 209.43 69.3869 209.833 70.1165C210.241 70.8407 210.508 71.6684 210.634 72.5995ZM213.408 66.9557H217.117L222.082 79.0764H222.278L227.244 66.9557H230.953V83.6829H228.045V72.1911H227.89L223.267 83.6339H221.094L216.471 72.1666H216.316V83.6829H213.408V66.9557ZM243.343 71.554C243.267 70.8407 242.945 70.2853 242.379 69.8878C241.818 69.4903 241.089 69.2916 240.19 69.2916C239.558 69.2916 239.017 69.3869 238.565 69.5775C238.113 69.768 237.767 70.0267 237.527 70.3534C237.288 70.6801 237.165 71.0531 237.16 71.4723C237.16 71.8208 237.239 72.123 237.397 72.3789C237.56 72.6349 237.781 72.8527 238.058 73.0324C238.336 73.2066 238.644 73.3536 238.981 73.4734C239.319 73.5932 239.659 73.6939 240.002 73.7756L241.57 74.1677C242.202 74.3147 242.809 74.5134 243.392 74.7639C243.98 75.0144 244.505 75.3302 244.968 75.7113C245.436 76.0925 245.807 76.5526 246.079 77.0917C246.351 77.6307 246.487 78.2624 246.487 78.9865C246.487 79.9667 246.237 80.8297 245.736 81.5757C245.235 82.3162 244.511 82.8961 243.563 83.3154C242.621 83.7292 241.481 83.9361 240.141 83.9361C238.84 83.9361 237.71 83.7347 236.752 83.3317C235.799 82.9288 235.053 82.3407 234.514 81.5675C233.98 80.7943 233.691 79.8523 233.648 78.7415H236.629C236.673 79.3241 236.852 79.8088 237.168 80.1954C237.484 80.582 237.895 80.8705 238.401 81.0611C238.913 81.2517 239.485 81.347 240.117 81.347C240.775 81.347 241.353 81.249 241.848 81.053C242.349 80.8515 242.741 80.5738 243.024 80.2199C243.307 79.8605 243.452 79.4412 243.457 78.962C243.452 78.5264 243.324 78.1671 243.073 77.8839C242.823 77.5953 242.472 77.3557 242.02 77.1652C241.573 76.9691 241.05 76.7949 240.451 76.6424L238.548 76.1524C237.171 75.7985 236.082 75.2621 235.281 74.5434C234.486 73.8192 234.089 72.8581 234.089 71.6602C234.089 70.6746 234.356 69.8116 234.889 69.0711C235.428 68.3305 236.161 67.7561 237.086 67.3477C238.012 66.9339 239.06 66.727 240.231 66.727C241.418 66.727 242.458 66.9339 243.351 67.3477C244.249 67.7561 244.955 68.3251 245.466 69.0547C245.978 69.7789 246.242 70.612 246.259 71.554H243.343Z" fill="white"/>
<path d="M23 274L23 181C23 173.82 28.8203 168 36 168L129 168C136.18 168 142 173.82 142 181L142 274C142 281.18 136.18 287 129 287L36 287C28.8203 287 23 281.18 23 274Z" fill="#57C66B" stroke="#57C66B" stroke-width="6"/>
<path d="M67.2623 236.273V215.909H80.5066V219.002H70.9512V224.53H79.8206V227.622H70.9512V233.181H80.5862V236.273H67.2623ZM83.3752 219.002V215.909H99.6224V219.002H93.3284V236.273H89.6693V219.002H83.3752Z" fill="white"/>
<path d="M60 262.459H106C109.314 262.459 112 259.772 112 256.459V196.681C112 193.368 109.314 190.681 106 190.681H60C56.6863 190.681 54 193.368 54 196.681V256.459C54 259.772 56.6863 262.459 60 262.459Z" stroke="white" stroke-width="4"/>
<path d="M56 252.126H110C111.105 252.126 112 251.231 112 250.126V203.015C112 201.91 111.104 201.015 110 201.015H56C54.8955 201.015 54.0002 201.91 54 203.015V250.126L54.0107 250.33C54.113 251.339 54.9643 252.126 56 252.126Z" stroke="white" stroke-width="4"/>
<path d="M61.4722 190.404V183.945" stroke="white" stroke-width="4" stroke-linecap="round" stroke-linejoin="round"/>
<path d="M78.6945 190.404V183.945" stroke="white" stroke-width="4" stroke-linecap="round" stroke-linejoin="round"/>
<path d="M78.6945 270.057V263.598" stroke="white" stroke-width="4" stroke-linecap="round" stroke-linejoin="round"/>
<path d="M95.9166 190.404V183.945" stroke="white" stroke-width="4" stroke-linecap="round" stroke-linejoin="round"/>
<path d="M95.9166 270.057V263.598" stroke="white" stroke-width="4" stroke-linecap="round" stroke-linejoin="round"/>
<path d="M70.0833 190.404V183.945" stroke="white" stroke-width="4" stroke-linecap="round" stroke-linejoin="round"/>
<path d="M87.3055 190.404V183.945" stroke="white" stroke-width="4" stroke-linecap="round" stroke-linejoin="round"/>
<path d="M87.3055 270.057V263.598" stroke="white" stroke-width="4" stroke-linecap="round" stroke-linejoin="round"/>
<path d="M104.528 190.404V183.945" stroke="white" stroke-width="4" stroke-linecap="round" stroke-linejoin="round"/>
<path d="M104.528 270.057V263.598" stroke="white" stroke-width="4" stroke-linecap="round" stroke-linejoin="round"/>
<path d="M36 313H129C136.18 313 142 318.82 142 326V419C142 426.18 136.18 432 129 432H36C28.8203 432 23 426.18 23 419V326C23 318.82 28.8203 313 36 313Z" fill="#57C66B" stroke="#57C66B" stroke-width="6"/>
<path d="M45.3415 406H120.674C121.779 406 122.674 405.105 122.674 404V341C122.674 339.895 121.779 339 120.674 339H45.3415C44.2369 339 43.3415 339.895 43.3415 341V404C43.3415 405.105 44.2369 406 45.3415 406Z" stroke="white" stroke-width="4"/>
<path d="M56.5203 379H109.496C110.6 379 111.496 378.105 111.496 377V349C111.496 347.895 110.6 347 109.496 347H56.5203C55.4158 347 54.5203 347.895 54.5203 349V377C54.5203 378.105 55.4158 379 56.5203 379Z" stroke="white" stroke-width="4"/>
<path d="M56.5203 396H67.8289C68.9335 396 69.8289 395.105 69.8289 394V390C69.8289 388.895 68.9335 388 67.8289 388H56.5203C55.4158 388 54.5203 388.895 54.5203 390V394C54.5203 395.105 55.4158 396 56.5203 396Z" stroke="white" stroke-width="4"/>
<path d="M76.8455 396H88.1541C89.2587 396 90.1541 395.105 90.1541 394V390C90.1541 388.895 89.2587 388 88.1541 388H76.8455C75.741 388 74.8455 388.895 74.8455 390V394C74.8455 395.105 75.741 396 76.8455 396Z" stroke="white" stroke-width="4"/>
<path d="M98.187 396H109.496C110.6 396 111.496 395.105 111.496 394V390C111.496 388.895 110.6 388 109.496 388H98.187C97.0824 388 96.187 388.895 96.187 390V394C96.187 395.105 97.0824 396 98.187 396Z" stroke="white" stroke-width="4"/>
<path d="M60.3998 355.455H63.6243L67.9424 365.994H68.1129L72.4311 355.455H75.6555V370H73.1271V360.007H72.9921L68.9723 369.957H67.0831L63.0632 359.986H62.9282V370H60.3998V355.455ZM88.2691 360.099C88.1508 359.716 87.9874 359.373 87.7791 359.07C87.5755 358.762 87.3293 358.499 87.0404 358.281C86.7564 358.063 86.4296 357.9 86.0603 357.791C85.691 357.678 85.2886 357.621 84.8529 357.621C84.0717 357.621 83.3757 357.817 82.7649 358.21C82.1541 358.603 81.6735 359.181 81.3231 359.943C80.9775 360.701 80.8046 361.624 80.8046 362.713C80.8046 363.812 80.9775 364.742 81.3231 365.504C81.6688 366.267 82.1493 366.847 82.7649 367.244C83.3804 367.637 84.0954 367.834 84.9098 367.834C85.6484 367.834 86.2876 367.692 86.8274 367.408C87.3719 367.124 87.7909 366.721 88.0845 366.2C88.378 365.675 88.5248 365.059 88.5248 364.354L89.1214 364.446H85.1725V362.386H91.0745V364.134C91.0745 365.379 90.8094 366.456 90.2791 367.365C89.7488 368.274 89.0196 368.975 88.0916 369.467C87.1636 369.955 86.0982 370.199 84.8956 370.199C83.5556 370.199 82.379 369.898 81.3657 369.297C80.3572 368.691 79.5689 367.831 79.0007 366.719C78.4372 365.601 78.1555 364.276 78.1555 362.741C78.1555 361.567 78.3212 360.518 78.6527 359.595C78.9888 358.672 79.4576 357.888 80.0589 357.244C80.6602 356.596 81.3657 356.103 82.1754 355.767C82.985 355.426 83.8657 355.256 84.8174 355.256C85.6224 355.256 86.3728 355.374 87.0689 355.611C87.7649 355.843 88.3828 356.174 88.9225 356.605C89.4671 357.036 89.9145 357.547 90.2649 358.139C90.6153 358.731 90.8449 359.384 90.9538 360.099H88.2691ZM106.073 360.362H103.417C103.341 359.927 103.201 359.541 102.997 359.205C102.794 358.864 102.541 358.575 102.238 358.338C101.935 358.101 101.589 357.924 101.201 357.805C100.817 357.682 100.403 357.621 99.9577 357.621C99.167 357.621 98.4662 357.82 97.8554 358.217C97.2446 358.61 96.7664 359.188 96.4208 359.95C96.0751 360.708 95.9023 361.634 95.9023 362.727C95.9023 363.84 96.0751 364.777 96.4208 365.54C96.7712 366.297 97.2494 366.87 97.8554 367.259C98.4662 367.642 99.1646 367.834 99.9506 367.834C100.386 367.834 100.793 367.777 101.172 367.663C101.556 367.545 101.899 367.372 102.202 367.145C102.51 366.918 102.768 366.638 102.976 366.307C103.189 365.975 103.336 365.597 103.417 365.17L106.073 365.185C105.973 365.876 105.758 366.525 105.426 367.131C105.1 367.737 104.671 368.272 104.141 368.736C103.611 369.195 102.99 369.555 102.28 369.815C101.57 370.071 100.782 370.199 99.9151 370.199C98.6367 370.199 97.4956 369.903 96.4918 369.311C95.488 368.719 94.6973 367.865 94.1196 366.747C93.542 365.63 93.2532 364.29 93.2532 362.727C93.2532 361.16 93.5444 359.82 94.1267 358.707C94.7091 357.59 95.5022 356.735 96.506 356.143C97.5098 355.552 98.6462 355.256 99.9151 355.256C100.725 355.256 101.478 355.369 102.174 355.597C102.87 355.824 103.49 356.158 104.034 356.598C104.579 357.034 105.026 357.569 105.377 358.203C105.732 358.833 105.964 359.553 106.073 360.362Z" fill="white"/>
<path d="M200.61 631.087L228 625L255.39 631.087C256.13 631.251 256.792 631.663 257.267 632.255C257.741 632.846 258 633.582 258 634.34V667.63C258 670.922 257.187 674.164 255.633 677.067C254.079 679.97 251.833 682.444 249.093 684.27L228 698.333L206.907 684.27C204.168 682.444 201.922 679.97 200.368 677.068C198.814 674.166 198.001 670.925 198 667.633V634.34C198 633.582 198.259 632.846 198.733 632.255C199.208 631.663 199.87 631.251 200.61 631.087ZM204.667 637.013V667.63C204.667 669.825 205.209 671.986 206.244 673.921C207.28 675.856 208.777 677.506 210.603 678.723L228 690.323L245.397 678.723C247.222 677.506 248.719 675.857 249.755 673.922C250.791 671.988 251.333 669.828 251.333 667.633V637.013L228 631.833L204.667 637.013ZM231.333 655H241.333L224.667 678.333V661.667H214.667L231.333 638.333V655Z" fill="white"/>
<path d="M310 326C310 317.163 317.163 310 326 310H419C427.837 310 435 317.163 435 326V419C435 427.837 427.837 435 419 435H326C317.163 435 310 427.837 310 419V326Z" fill="#57C66B"/>
<path d="M362.118 321H383.883C385.54 321 386.883 322.343 386.883 324V332.824C386.883 334.481 385.54 335.824 383.883 335.824H362.118C360.461 335.824 359.118 334.481 359.118 332.824V324C359.118 322.343 360.461 321 362.118 321Z" fill="white" stroke="#57C66B" stroke-width="2"/>
<rect x="359.118" y="328.765" width="5.76488" height="8.35318" rx="1" fill="white" stroke="#57C66B" stroke-width="2"/>
<rect x="381.119" y="328.765" width="5.76488" height="8.35318" rx="1" fill="white" stroke="#57C66B" stroke-width="2"/>
<path d="M355 335.883H391.001C392.658 335.883 394.001 337.226 394.001 338.883V374.884C394.001 376.54 392.658 377.884 391.001 377.884H355C353.343 377.884 352 376.54 352 374.884V338.883C352 337.226 353.343 335.883 355 335.883Z" fill="white" stroke="#57C66B" stroke-width="2"/>
<rect x="355.883" y="377.942" width="5.11781" height="16.1181" rx="1" fill="white" stroke="#57C66B" stroke-width="2"/>
<rect x="365.588" y="377.942" width="5.11781" height="18.0593" rx="1" fill="white" stroke="#57C66B" stroke-width="2"/>
<rect x="374.649" y="377.942" width="5.11781" height="18.0593" rx="1" fill="white" stroke="#57C66B" stroke-width="2"/>
<rect x="384.354" y="377.942" width="5.11781" height="16.1181" rx="1" fill="white" stroke="#57C66B" stroke-width="2"/>
<rect x="355.883" y="392.178" width="5.11781" height="7.7061" rx="1" fill="white" stroke="#57C66B" stroke-width="2"/>
<rect x="370" y="391.942" width="5" height="8" rx="1" fill="white" stroke="#57C66B" stroke-width="2"/>
<rect x="384.354" y="392.178" width="5.11781" height="7.7061" rx="1" fill="white" stroke="#57C66B" stroke-width="2"/>
<path d="M364.588 368.884H380.118C381.352 368.884 382.354 369.884 382.354 371.119C382.354 372.354 381.352 373.354 380.118 373.354H364.588C363.354 373.354 362.353 372.354 362.353 371.119C362.353 369.885 363.354 368.884 364.588 368.884Z" fill="white" stroke="#57C66B" stroke-width="2"/>
<circle cx="373" cy="328.412" r="3.52951" fill="white" stroke="#57C66B" stroke-width="2"/>
<path d="M360.058 341.677H385.294" stroke="#57C66B" stroke-width="2" stroke-linecap="round"/>
<path d="M365.883 361.413H378.825" stroke="#57C66B" stroke-width="2" stroke-linecap="round"/>
<path d="M371.706 365.295H373" stroke="#57C66B" stroke-width="2" stroke-linecap="round"/>
<path d="M364.588 365.295H365.882" stroke="#57C66B" stroke-width="2" stroke-linecap="round"/>
<path d="M378.824 365.295L380.118 365.295" stroke="#57C66B" stroke-width="2" stroke-linecap="round"/>
<rect x="369.999" y="377.942" width="5.11781" height="16.1181" rx="1" fill="white" stroke="#57C66B" stroke-width="2"/>
<path d="M325.716 422L325.716 407.455L330.631 407.455C331.768 407.455 332.7 407.649 333.43 408.037C334.159 408.42 334.698 408.948 335.049 409.621C335.399 410.293 335.574 411.058 335.574 411.915C335.574 412.772 335.399 413.532 335.049 414.195C334.698 414.857 334.161 415.378 333.437 415.757C332.712 416.131 331.787 416.318 330.66 416.318L326.682 416.318L326.682 414.727L330.603 414.727C331.379 414.727 332.004 414.614 332.478 414.386C332.956 414.159 333.302 413.837 333.515 413.42C333.733 412.999 333.841 412.497 333.841 411.915C333.841 411.332 333.733 410.823 333.515 410.388C333.297 409.952 332.949 409.616 332.471 409.379C331.992 409.138 331.36 409.017 330.574 409.017L327.478 409.017L327.478 422L325.716 422ZM332.563 415.466L336.143 422L334.097 422L330.574 415.466L332.563 415.466ZM342.739 422.227C341.688 422.227 340.781 421.995 340.019 421.531C339.261 421.063 338.676 420.409 338.264 419.571C337.857 418.728 337.654 417.748 337.654 416.631C337.654 415.513 337.857 414.528 338.264 413.676C338.676 412.819 339.249 412.152 339.983 411.673C340.722 411.19 341.584 410.949 342.568 410.949C343.137 410.949 343.698 411.044 344.252 411.233C344.806 411.422 345.31 411.73 345.764 412.156C346.219 412.578 346.581 413.136 346.851 413.832C347.121 414.528 347.256 415.385 347.256 416.403L347.256 417.114L338.847 417.114L338.847 415.665L345.551 415.665C345.551 415.049 345.428 414.5 345.182 414.017C344.941 413.534 344.595 413.153 344.145 412.874C343.7 412.594 343.174 412.455 342.568 412.455C341.901 412.455 341.323 412.62 340.835 412.952C340.352 413.278 339.981 413.705 339.72 414.23C339.46 414.756 339.33 415.319 339.33 415.92L339.33 416.886C339.33 417.71 339.472 418.409 339.756 418.982C340.045 419.55 340.445 419.983 340.956 420.281C341.468 420.575 342.062 420.722 342.739 420.722C343.179 420.722 343.577 420.66 343.932 420.537C344.292 420.409 344.602 420.22 344.862 419.969C345.123 419.713 345.324 419.396 345.466 419.017L347.085 419.472C346.915 420.021 346.628 420.504 346.226 420.92C345.824 421.332 345.326 421.654 344.735 421.886C344.143 422.114 343.477 422.227 342.739 422.227ZM351.482 407.455L351.482 422L349.806 422L349.806 407.455L351.482 407.455ZM357.762 422.256C357.071 422.256 356.443 422.125 355.88 421.865C355.316 421.6 354.869 421.219 354.537 420.722C354.206 420.22 354.04 419.614 354.04 418.903C354.04 418.278 354.163 417.772 354.41 417.384C354.656 416.991 354.985 416.683 355.397 416.46C355.809 416.238 356.263 416.072 356.76 415.963C357.262 415.849 357.767 415.759 358.273 415.693C358.936 415.608 359.474 415.544 359.885 415.501C360.302 415.454 360.605 415.376 360.795 415.267C360.989 415.158 361.086 414.969 361.086 414.699L361.086 414.642C361.086 413.941 360.894 413.397 360.51 413.009C360.132 412.62 359.556 412.426 358.785 412.426C357.984 412.426 357.357 412.601 356.903 412.952C356.448 413.302 356.128 413.676 355.944 414.074L354.353 413.506C354.637 412.843 355.016 412.327 355.489 411.957C355.967 411.583 356.488 411.323 357.052 411.176C357.62 411.025 358.179 410.949 358.728 410.949C359.078 410.949 359.481 410.991 359.935 411.077C360.394 411.157 360.837 411.325 361.263 411.581C361.694 411.837 362.052 412.223 362.336 412.739C362.62 413.255 362.762 413.946 362.762 414.813L362.762 422L361.086 422L361.086 420.523L361.001 420.523C360.887 420.759 360.698 421.013 360.432 421.283C360.167 421.553 359.814 421.782 359.374 421.972C358.934 422.161 358.396 422.256 357.762 422.256ZM358.018 420.75C358.68 420.75 359.239 420.62 359.694 420.359C360.153 420.099 360.499 419.763 360.731 419.351C360.967 418.939 361.086 418.506 361.086 418.051L361.086 416.517C361.015 416.602 360.858 416.68 360.617 416.751C360.38 416.818 360.106 416.877 359.793 416.929C359.485 416.976 359.185 417.019 358.891 417.057C358.602 417.09 358.368 417.118 358.188 417.142C357.752 417.199 357.345 417.291 356.966 417.419C356.592 417.542 356.289 417.729 356.057 417.98C355.83 418.226 355.716 418.563 355.716 418.989C355.716 419.571 355.932 420.011 356.363 420.31C356.798 420.603 357.35 420.75 358.018 420.75ZM366.51 426.091C366.226 426.091 365.973 426.067 365.75 426.02C365.528 425.977 365.374 425.935 365.289 425.892L365.715 424.415C366.122 424.519 366.482 424.557 366.794 424.528C367.107 424.5 367.384 424.36 367.625 424.109C367.871 423.863 368.096 423.463 368.3 422.909L368.612 422.057L364.578 411.091L366.396 411.091L369.408 419.784L369.521 419.784L372.533 411.091L374.351 411.091L369.72 423.591C369.512 424.154 369.254 424.621 368.946 424.99C368.638 425.364 368.281 425.641 367.874 425.821C367.471 426.001 367.017 426.091 366.51 426.091ZM383.012 407.455L387.33 419.699L387.501 419.699L391.819 407.455L393.666 407.455L388.325 422L386.507 422L381.166 407.455L383.012 407.455ZM406.952 412L405.191 412C405.087 411.493 404.904 411.048 404.644 410.665C404.388 410.281 404.076 409.959 403.706 409.699C403.342 409.434 402.937 409.235 402.492 409.102C402.047 408.97 401.583 408.903 401.1 408.903C400.219 408.903 399.421 409.126 398.706 409.571C397.996 410.016 397.43 410.672 397.009 411.538C396.592 412.405 396.384 413.468 396.384 414.727C396.384 415.987 396.592 417.05 397.009 417.916C397.43 418.783 397.996 419.438 398.706 419.884C399.421 420.329 400.219 420.551 401.1 420.551C401.583 420.551 402.047 420.485 402.492 420.352C402.937 420.22 403.342 420.023 403.706 419.763C404.076 419.498 404.388 419.173 404.644 418.79C404.904 418.402 405.087 417.956 405.191 417.455L406.952 417.455C406.82 418.198 406.578 418.863 406.228 419.45C405.877 420.037 405.442 420.537 404.921 420.949C404.4 421.356 403.815 421.666 403.167 421.879C402.523 422.092 401.834 422.199 401.1 422.199C399.859 422.199 398.756 421.896 397.79 421.29C396.824 420.684 396.064 419.822 395.51 418.705C394.956 417.587 394.68 416.261 394.68 414.727C394.68 413.193 394.956 411.867 395.51 410.75C396.064 409.633 396.824 408.771 397.79 408.165C398.756 407.559 399.859 407.256 401.1 407.256C401.834 407.256 402.523 407.362 403.167 407.575C403.815 407.788 404.4 408.101 404.921 408.513C405.442 408.92 405.877 409.417 406.228 410.004C406.578 410.587 406.82 411.252 406.952 412ZM409.798 422L409.798 407.455L414.884 407.455C415.897 407.455 416.733 407.63 417.391 407.98C418.049 408.326 418.539 408.792 418.861 409.379C419.183 409.962 419.344 410.608 419.344 411.318C419.344 411.943 419.233 412.459 419.01 412.866C418.792 413.274 418.503 413.596 418.144 413.832C417.789 414.069 417.403 414.244 416.986 414.358L416.986 414.5C417.431 414.528 417.878 414.685 418.328 414.969C418.778 415.253 419.155 415.66 419.458 416.19C419.761 416.721 419.912 417.369 419.912 418.136C419.912 418.866 419.746 419.521 419.415 420.104C419.084 420.686 418.56 421.148 417.845 421.489C417.13 421.83 416.2 422 415.054 422L409.798 422ZM411.56 420.438L415.054 420.438C416.205 420.438 417.021 420.215 417.504 419.77C417.992 419.32 418.236 418.776 418.236 418.136C418.236 417.644 418.11 417.189 417.86 416.773C417.609 416.351 417.251 416.015 416.787 415.764C416.323 415.509 415.774 415.381 415.139 415.381L411.56 415.381L411.56 420.438ZM411.56 413.847L414.827 413.847C415.357 413.847 415.835 413.742 416.262 413.534C416.692 413.326 417.033 413.032 417.284 412.653C417.54 412.275 417.668 411.83 417.668 411.318C417.668 410.679 417.445 410.137 417 409.692C416.555 409.242 415.85 409.017 414.884 409.017L411.56 409.017L411.56 413.847Z" fill="white"/>
<defs>
<clipPath id="clip0_78_203">
<rect width="125" height="125" fill="white" transform="translate(20 600)"/>
</clipPath>
</defs>
</svg>
